<svg xmlns="http://www.w3.org/2000/svg" width="128" height="128" viewBox="0 0 128 128">
  <defs>
    <clipPath id="circle">
      <circle cx="64" cy="64" r="60"/>
    </clipPath>
  </defs>
  <!-- Golden fill -->
  <circle cx="64" cy="64" r="60" fill="#E8C840"/>
  <!-- Topographic contour lines -->
  <g clip-path="url(#circle)" fill="none" stroke="#1a1a1a" stroke-width="1.8" stroke-linecap="round">
    <!-- Outer contours -->
    <path d="M12,80 Q30,50 55,45 Q80,40 100,60 Q115,75 108,95"/>
    <path d="M8,65 Q25,35 50,30 Q78,24 105,48 Q120,62 115,85"/>
    <path d="M15,95 Q35,70 60,62 Q82,56 98,72 Q108,82 102,100"/>
    <path d="M20,108 Q42,85 65,78 Q85,73 96,85 Q104,93 98,110"/>
    <!-- Inner contours - tighter rings -->
    <path d="M35,72 Q48,55 65,52 Q80,49 92,60 Q100,68 95,80"/>
    <path d="M40,85 Q52,68 68,64 Q82,60 90,70 Q96,78 90,90"/>
    <path d="M48,78 Q58,66 70,63 Q80,61 86,68 Q90,74 85,82"/>
    <!-- Upper contours -->
    <path d="M5,50 Q20,22 48,16 Q72,12 100,32 Q118,46 120,65"/>
    <path d="M10,38 Q28,12 55,6 Q82,2 108,25 Q122,38 124,55"/>
    <!-- Lower contours -->
    <path d="M25,115 Q48,98 70,92 Q88,88 96,96 Q102,102 95,115"/>
    <path d="M4,100 Q22,70 50,58 Q75,48 100,62 Q116,72 114,95 Q112,110 95,122"/>
    <!-- Accent swirls -->
    <path d="M55,70 Q62,64 72,66 Q78,68 76,75"/>
    <path d="M58,58 Q65,52 75,55 Q82,58 80,66 Q78,72 70,74"/>
  </g>
  <!-- Subtle rim -->
  <circle cx="64" cy="64" r="60" fill="none" stroke="#1a1a1a" stroke-width="2.5"/>
</svg>
